<svg xmlns="http://www.w3.org/2000/svg" viewBox="0 0 512 512">
  <!-- Knockoff mark: signal-red price tag with a punched hole, struck through by a
       white X. Matches the brand favicon in the knockoff-marketing site. Source of truth
       for the rasterized extension icons — the mark fills the square edge-to-edge
       (its native 56.29x63.3 aspect scaled to full height, centered), no padding.
       Regenerate the PNGs with scripts/render-icons.sh after editing. -->
  <g transform="translate(28.36 0) scale(8.0884)">
    <path d="M46.83,11.46L29.85,1.55C25.13-1.21,19.11-.2,15.55,3.95L2.74,18.86C.54,21.42-.4,24.79.16,28.12l3.79,22.58c1.38,8.21,9.18,13.77,17.4,12.39l22.34-3.75c8.21-1.38,13.77-9.18,12.39-17.4l-3.79-22.58c-.56-3.33-2.55-6.21-5.46-7.9h0ZM25.71,20.65c-2.57.43-5-1.3-5.44-3.87s1.3-5,3.87-5.44,5,1.3,5.44,3.87c.43,2.57-1.3,5-3.87,5.44Z" style="fill: #e01024;"/>
    <path d="M42.83,44.9l-8.64-6.16c-.44-.32-.55-.93-.23-1.38l6.16-8.64c.32-.44.21-1.06-.23-1.38l-3.77-2.68c-.44-.32-1.06-.21-1.38.23l-6.16,8.64c-.32.44-.93.55-1.38.23l-8.64-6.16c-.44-.32-1.06-.21-1.38.23l-2.68,3.77c-.32.44-.21,1.06.23,1.38l8.64,6.16c.44.32.55.93.23,1.38l-6.16,8.64c-.32.44-.21,1.06.23,1.38l3.77,2.68c.44.32,1.06.21,1.38-.23l6.16-8.64c.32-.44.93-.55,1.38-.23l8.64,6.16c.44.32,1.06.21,1.38-.23l2.68-3.77c.32-.44.21-1.06-.23-1.38Z" style="fill: #fff;"/>
  </g>
</svg>
