<svg xmlns="http://www.w3.org/2000/svg" viewBox="0 0 186 35.8"><defs><style>.a{fill:#348fff;}</style></defs><path class="a" d="M45.08,12.75h-6a.47.47,0,0,0-.47.47V34.79a.47.47,0,0,0,.47.47h6a.47.47,0,0,0,.47-.47V13.22A.47.47,0,0,0,45.08,12.75Zm22.8,6.55V12.75H49.76a.47.47,0,0,0-.47.47h0v5.6a.47.47,0,0,0,.47.48H58.7l-10,9.41v6.55H67.77a.47.47,0,0,0,.47-.47v-5.6a.48.48,0,0,0-.47-.48H57.85Zm31.18-7.08a8.81,8.81,0,0,0-7.45,3.93,7.24,7.24,0,0,0-6.75-3.93,7.84,7.84,0,0,0-6.39,3.07V13.22a.47.47,0,0,0-.47-.47H72a.47.47,0,0,0-.48.47V34.79a.47.47,0,0,0,.48.47h6a.47.47,0,0,0,.47-.47h0V23.31c0-3.11,1.39-4.46,3.93-4.46s3.36,1.43,3.36,3.89V34.79a.47.47,0,0,0,.47.47h6a.48.48,0,0,0,.48-.47V23.31c0-3.11,1.39-4.46,3.93-4.46S100,20.28,100,22.74V34.79a.47.47,0,0,0,.48.47h6a.47.47,0,0,0,.47-.47V21.18c0-5.49-3.07-9-7.9-9Zm22.17,0A11.61,11.61,0,0,0,109.44,24,11.79,11.79,0,0,0,133,24,11.61,11.61,0,0,0,121.23,12.25Zm4.89,12a4.89,4.89,0,1,1-4.71-5.07,4.89,4.89,0,0,1,4.71,5.07Zm48.09-12A11.61,11.61,0,0,0,162.42,24,11.79,11.79,0,1,0,186,24,11.61,11.61,0,0,0,174.21,12.25Zm4.83,12a4.83,4.83,0,1,1-4.65-5,4.83,4.83,0,0,1,4.65,5Zm-26.86-8.92a7.8,7.8,0,0,0-6.42-3.07c-5.61,0-10.12,4.79-10.12,11.79S140.07,35.8,145.8,35.8a7.94,7.94,0,0,0,6.38-2.95v1.94a.47.47,0,0,0,.48.47h6a.47.47,0,0,0,.47-.47V4.22a.48.48,0,0,0-.47-.48h-6a.48.48,0,0,0-.48.48h0V15.29Zm0,9a4.89,4.89,0,1,1-9.77-.14,1.7,1.7,0,0,1,0-.22,4.89,4.89,0,0,1,9.76.36ZM41.58,10.35a3.47,3.47,0,0,0,3.75-3.18,2.71,2.71,0,0,0,0-.57,3.48,3.48,0,0,0-6.93,0,5.23,5.23,0,0,0,0,.56A3.48,3.48,0,0,0,41.58,10.35Zm-6.25,7.19a17.66,17.66,0,1,1-8.55-15l-3,4.64a2.38,2.38,0,0,1-2.67,1,9.74,9.74,0,0,0-2.88-.41,10.1,10.1,0,0,0-9.88,9.59,9.94,9.94,0,0,0,18.28,5.73,3.63,3.63,0,0,1,3-1.67h.54a.5.5,0,0,0,.51-.5.51.51,0,0,0-.51-.5h-15l3.2-4.9c1.1-1.69,2.23-2.71,5.21-2.71h9.18a2.38,2.38,0,0,1,2.35,2,18.05,18.05,0,0,1,.24,2.77Z" transform="translate(0 -0.02)"/></svg>